<?xml version="1.0" encoding="utf-8"?>
<!-- Generator: Adobe Illustrator 27.5.0, SVG Export Plug-In . SVG Version: 6.00 Build 0)  -->
<svg version="1.1" xmlns="http://www.w3.org/2000/svg" xmlns:xlink="http://www.w3.org/1999/xlink" x="0px" y="0px"
	 viewBox="0 0 500 500" style="enable-background:new 0 0 500 500;" xml:space="preserve">
<g id="Background_Simple">
	<g>
		<path style="fill:#92E3A9;" d="M131.943,463.294c-2.966-1.175-5.887-2.416-8.752-3.732
			c-38.147-17.534-66.616-50.633-81.584-84.217c-6.565-14.712-10.856-30.09-13.25-45.652
			c-15.652-102.079,75.723-150.414,96.68-186.204c20.958-35.789,57.394-91.187,146.526-94.689
			c67.768-2.672,135.826,23.991,171.972,82.521c3.991,6.445,7.594,13.285,10.757,20.512c5.885,13.445,10.289,28.239,12.921,44.413
			c7.564,46.456-0.934,85.81-28.851,126.492c-6.49,9.457-13.937,18.973-13.609,30.269c0.238,8.211,4.403,15.556,12.342,6.06
			c9.332-11.161,31.165-1.92,19.72,25.046c-19.114,45.037-68.608,68.207-119.996,82.255
			C273.743,483.611,193.356,487.631,131.943,463.294z"/>
		<path style="opacity:0.7;fill:#FFFFFF;" d="M131.943,463.294c-2.966-1.175-5.887-2.416-8.752-3.732
			c-38.147-17.534-66.616-50.633-81.584-84.217c-6.565-14.712-10.856-30.09-13.25-45.652
			c-15.652-102.079,75.723-150.414,96.68-186.204c20.958-35.789,57.394-91.187,146.526-94.689
			c67.768-2.672,135.826,23.991,171.972,82.521c3.991,6.445,7.594,13.285,10.757,20.512c5.885,13.445,10.289,28.239,12.921,44.413
			c7.564,46.456-0.934,85.81-28.851,126.492c-6.49,9.457-13.937,18.973-13.609,30.269c0.238,8.211,4.403,15.556,12.342,6.06
			c9.332-11.161,31.165-1.92,19.72,25.046c-19.114,45.037-68.608,68.207-119.996,82.255
			C273.743,483.611,193.356,487.631,131.943,463.294z"/>
	</g>
</g>
<g id="Moon">
	<g>
		<circle style="fill:#FFFFFF;" cx="143.304" cy="128.6" r="103.597"/>
		
			<circle style="fill:#FFFFFF;stroke:#263238;stroke-linecap:round;stroke-linejoin:round;stroke-miterlimit:10;" cx="143.304" cy="128.6" r="97.08"/>
		<ellipse style="opacity:0.14;" cx="85.165" cy="125.366" rx="25.408" ry="26.964"/>
		
			<ellipse transform="matrix(0.1602 -0.9871 0.9871 0.1602 38.0988 186.6189)" style="opacity:0.14;" cx="128.721" cy="70.92" rx="21.26" ry="21.26"/>
		<path style="opacity:0.14;" d="M139.611,154.404c0,6.873-4.875,12.445-10.889,12.445c-6.014,0-10.889-5.572-10.889-12.445
			c0-6.873,4.875-12.445,10.889-12.445C134.736,141.959,139.611,147.531,139.611,154.404z"/>
		<path style="opacity:0.14;" d="M211.772,169.196c-4.648,5.063-12.007,5.871-16.438,1.805s-4.255-11.468,0.393-16.532
			c4.648-5.064,12.007-5.872,16.438-1.805C216.596,156.731,216.419,164.132,211.772,169.196z"/>
		<ellipse style="opacity:0.14;" cx="89.313" cy="176.182" rx="8.815" ry="8.297"/>
		<path style="opacity:0.14;" d="M217.499,98.706c4.521-0.742,8.826,2.551,9.615,7.355c0.788,4.804-2.238,9.3-6.76,10.042
			c-4.522,0.742-8.826-2.551-9.615-7.355C209.951,103.944,212.978,99.448,217.499,98.706z"/>
		<ellipse style="opacity:0.14;" cx="160.871" cy="97.883" rx="11.926" ry="10.889"/>
		<path style="opacity:0.14;" d="M171.76,60.03c0,3.437-2.786,6.222-6.222,6.222c-3.437,0-6.222-2.786-6.222-6.222
			s2.786-6.222,6.222-6.222C168.974,53.808,171.76,56.594,171.76,60.03z"/>
		<path style="opacity:0.14;" d="M89.831,79.216c0,4.868-4.411,8.815-9.852,8.815c-5.441,0-9.852-3.947-9.852-8.815
			c0-4.868,4.411-8.815,9.852-8.815C85.42,70.401,89.831,74.348,89.831,79.216z"/>
		<ellipse style="opacity:0.14;" cx="130.03" cy="114.344" rx="13.274" ry="14.256"/>
		<path style="opacity:0.14;" d="M134.904,198.969c-3.126,6.459-12.801,8.24-21.609,3.977c-8.808-4.263-13.413-12.955-10.287-19.415
			c3.126-6.459,12.801-8.24,21.609-3.977C133.425,183.817,138.031,192.51,134.904,198.969z"/>
	</g>
</g>
<g id="Clouds">
	<g>
		<path style="fill:none;stroke:#263238;stroke-miterlimit:10;" d="M177.829,434.66c-7.075-3.523-13.806-7.947-20.914-5.577
			c-11.156,3.719-10.227,14.875-17.664,17.664c-7.438,2.789-13.945-2.789-21.383,0c-7.438,2.789-12.086,7.438-12.086,7.438h358.863
			c0,0-0.93-21.383-13.946-27.891c-13.016-6.508-24.172,1.859-35.33,1.859c-5.682-0.001-9.988-5.43-13.76-12.083
			c-1.905-3.36-3.951-6.565-6.13-9.599"/>
		<path style="fill:none;stroke:#263238;stroke-miterlimit:10;" d="M388.56,397.904c-20.322-22.336-49.136-31.451-80.542-17.111
			c-12.419,5.67-21.637,15.198-28.506,26.824c-2.913,4.93-6.121,17.269-11.962,19.607c-9.297,3.719-28.821-13.016-45.555-9.297
			c-16.734,3.719-19.524,20.453-31.61,20.453c-2.193,0-4.324-0.428-6.411-1.108"/>
		<path style="fill:none;stroke:#263238;stroke-miterlimit:10;" d="M400.828,439.63c-7.534-13.288-20.877-20.258-35.74-13.471
			c-4.742,2.165-8.263,5.804-10.886,10.243c-1.112,1.883-2.337,6.595-4.568,7.487c-3.55,1.42-11.006-4.97-17.396-3.55
			c-6.391,1.42-7.455,7.811-12.071,7.811c-4.615,0-8.521-4.97-12.781-3.55c-4.26,1.42-3.905,5.68-6.746,6.746
			c-2.84,1.065-5.325-1.065-8.166,0s-4.615,2.84-4.615,2.84H424.9c0,0-0.355-8.166-5.325-10.651c-4.97-2.485-9.231,0.71-13.491,0.71
			C403.913,444.244,402.269,442.17,400.828,439.63z"/>
	</g>
	<g>
		<path style="fill:none;stroke:#263238;stroke-miterlimit:10;" d="M59.846,312.34c-4.625-2.303-9.025-5.195-13.671-3.646
			c-7.293,2.431-6.685,9.724-11.547,11.547s-9.116-1.823-13.978,0s-7.901,4.862-7.901,4.862h234.589c0,0-0.608-13.978-9.116-18.232
			c-8.508-4.254-15.801,1.215-23.095,1.215c-3.714,0-6.529-3.55-8.995-7.899c-1.245-2.196-2.583-4.292-4.007-6.275"/>
		<path style="fill:none;stroke:#263238;stroke-miterlimit:10;" d="M197.601,288.313c-13.284-14.601-32.12-20.559-52.651-11.185
			c-8.118,3.707-14.144,9.935-18.635,17.535c-1.904,3.223-4.001,11.289-7.819,12.817c-6.077,2.431-18.84-8.508-29.78-6.077
			s-12.763,13.37-20.663,13.37c-1.433,0-2.827-0.28-4.191-0.724"/>
		<path style="fill:none;stroke:#263238;stroke-miterlimit:10;" d="M205.621,315.589c-4.925-8.686-13.647-13.243-23.363-8.806
			c-3.1,1.415-5.401,3.794-7.116,6.696c-0.727,1.231-1.528,4.311-2.986,4.894c-2.321,0.928-7.195-3.249-11.372-2.321
			c-4.177,0.928-4.874,5.106-7.891,5.106c-3.017,0-5.57-3.249-8.355-2.321c-2.785,0.928-2.553,3.713-4.41,4.41
			c-1.857,0.696-3.481-0.696-5.338,0c-1.857,0.696-3.017,1.857-3.017,1.857h89.583c0,0-0.232-5.338-3.481-6.962
			c-3.249-1.625-6.034,0.464-8.819,0.464C207.637,318.605,206.562,317.25,205.621,315.589z"/>
	</g>
	<g>
		<path style="fill:none;stroke:#263238;stroke-miterlimit:10;" d="M393.292,123.681c-2.294-1.142-4.477-2.577-6.782-1.809
			c-3.618,1.206-3.316,4.824-5.728,5.728c-2.412,0.904-4.522-0.905-6.934,0c-2.412,0.904-3.919,2.412-3.919,2.412h116.376
			c0,0-0.301-6.934-4.522-9.045c-4.221-2.11-7.839,0.603-11.457,0.603c-1.842,0-3.239-1.761-4.462-3.918
			c-0.618-1.09-1.281-2.129-1.988-3.113"/>
		<path style="fill:none;stroke:#263238;stroke-miterlimit:10;" d="M461.63,111.761c-6.59-7.243-15.935-10.199-26.119-5.549
			c-4.027,1.839-7.017,4.929-9.244,8.699c-0.945,1.599-1.985,5.6-3.879,6.358c-3.015,1.206-9.346-4.221-14.773-3.015
			c-5.427,1.206-6.331,6.633-10.251,6.633c-0.711,0-1.402-0.139-2.079-0.359"/>
		<path style="fill:none;stroke:#263238;stroke-miterlimit:10;" d="M465.609,125.293c-2.443-4.309-6.77-6.57-11.59-4.369
			c-1.538,0.702-2.68,1.882-3.53,3.322c-0.361,0.611-0.758,2.139-1.481,2.428c-1.151,0.461-3.569-1.612-5.642-1.151
			c-2.072,0.461-2.418,2.533-3.914,2.533c-1.497,0-2.763-1.612-4.145-1.151c-1.382,0.461-1.266,1.842-2.188,2.188
			c-0.921,0.345-1.727-0.345-2.648,0c-0.921,0.345-1.497,0.921-1.497,0.921h44.441c0,0-0.115-2.648-1.727-3.454
			c-1.612-0.806-2.993,0.23-4.375,0.23C466.609,126.789,466.076,126.116,465.609,125.293z"/>
	</g>
</g>
<g id="Character">
	<g>
		<g>
			<g>
				<path style="fill:#FFFFFF;stroke:#263238;stroke-linecap:round;stroke-linejoin:round;stroke-miterlimit:10;" d="
					M101.253,310.926c0,0-0.538-0.139-1.261-0.215c-0.58-1.544-1.365-3.121-2.074-4.335c-1.892-3.24-0.844-7.231-3.68-9.195
					c-2.836-1.964-5.762-2.427-6.361-0.147c0,0,2.402,2.459,3.032,3.539c0.631,1.08,4.371,11.205,4.777,13.14
					c0.024,0.113,0.051,0.224,0.082,0.334c-0.272,1.535-0.027,2.552,1.887,2.887c2.573,0.452,2.883,0.981,4.373-0.422
					C103.519,315.11,101.253,310.926,101.253,310.926z"/>
				<path style="fill:#FFFFFF;stroke:#263238;stroke-linecap:round;stroke-linejoin:round;stroke-miterlimit:10;" d="
					M103.054,314.315c0,0-3.192-1.511-4.373,0.422c-1.181,1.933,0.377,3.688,2.685,4.294c2.308,0.606,4.816,2.162,7.079,2.083
					c2.264-0.078,3.864-1.901,3.035-3.016c-0.829-1.115-4.396-2.052-5.6-2.592C104.678,314.966,103.054,314.315,103.054,314.315z"/>
				<path style="fill:#FFFFFF;stroke:#263238;stroke-linecap:round;stroke-linejoin:round;stroke-miterlimit:10;" d="
					M119.078,316.504c-1.149-0.75-5.896,0.246-5.896,0.246c-1.624-0.651-3.147-0.827-3.997-0.153c0,0-2.085,2.816-0.738,4.516
					c1.871,2.362,6.458-0.507,8.685-1.784C118.231,318.699,121.37,318.001,119.078,316.504z"/>
			</g>
			<g>
				<path style="fill:#FFFFFF;stroke:#263238;stroke-linecap:round;stroke-linejoin:round;stroke-miterlimit:10;" d="
					M91.511,310.504c0.304-1.621,0.449-3.376,0.471-4.782c0.06-3.751,3.023-6.622,1.614-9.771c-1.409-3.149-3.672-5.061-5.365-3.42
					c0,0,0.781,3.347,0.761,4.598c-0.02,1.25-2.064,11.849-2.719,13.714c-0.036,0.101-0.055,0.204-0.084,0.306
					c-1.043,1.182-1.372,2.183,0.101,3.47c1.967,1.719,1.958,2.333,3.959,1.904c2.001-0.429,2.23-5.181,2.23-5.181
					S92.09,310.944,91.511,310.504z"/>
				<path style="fill:#FFFFFF;stroke:#263238;stroke-linecap:round;stroke-linejoin:round;stroke-miterlimit:10;" d="
					M92.264,315.174c0,0-1.948-2.946-3.959-1.904c-2.011,1.042-1.587,3.35,0.073,5.064c1.66,1.714,3,4.344,4.977,5.449
					c1.977,1.105,4.29,0.375,4.159-1.008c-0.132-1.383-2.698-4.032-3.448-5.118C93.316,316.571,92.264,315.174,92.264,315.174z"/>
				<path style="fill:#FFFFFF;stroke:#263238;stroke-linecap:round;stroke-linejoin:round;stroke-miterlimit:10;" d="
					M104.836,325.345c-0.728-1.51-2.576-1.64-3.936-2.246c-1.524-0.68-2.772-3.026-4.576-2.797c0,0-3.243,1.329-2.97,3.482
					c0.182,1.439,0.852,2.853,2.387,3.185c0.197,0.043,0.399,0.064,0.589,0.129c0.215,0.073,0.384,0.363,0.604,0.31
					C101.438,326.318,106.304,328.401,104.836,325.345z"/>
			</g>
			<g>
				<path style="fill:#FFFFFF;stroke:#263238;stroke-linecap:round;stroke-linejoin:round;stroke-miterlimit:10;" d="M93.5,297.046
					c-0.164-3.594-1.629-6.314-3.899-5.37c0,0-0.522,3.547-1.019,4.753c-0.497,1.206-6.532,10.709-7.88,12.269
					c-0.078,0.091-0.153,0.184-0.225,0.279c-1.446,0.745-2.134,1.59-1.202,3.391c1.252,2.42,1.008,3.012,3.114,3.361
					c2.106,0.349,4.145-4.175,4.145-4.175s-0.225-0.534-0.618-1.182c0.914-1.457,1.726-3.105,2.285-4.46
					C89.69,302.294,93.664,300.641,93.5,297.046z"/>
				<path style="fill:#FFFFFF;stroke:#263238;stroke-linecap:round;stroke-linejoin:round;stroke-miterlimit:10;" d="M84.86,315.191
					c0,0-0.764-3.603-3.114-3.361c-2.35,0.243-2.821,2.644-1.865,4.942c0.956,2.298,1.251,5.361,2.747,7.19
					c1.496,1.828,4.02,2.004,4.421,0.611c0.401-1.392-1.077-4.944-1.389-6.284C85.347,316.949,84.86,315.191,84.86,315.191z"/>
				<path style="fill:#FFFFFF;stroke:#263238;stroke-linecap:round;stroke-linejoin:round;stroke-miterlimit:10;" d="
					M89.466,325.009c-0.67-1.242-1.393-3.308-2.625-3.291c-0.001,0-3.654,0.051-4.213,2.242c-0.722,2.831,3.976,4.704,6.305,5.789
					c1.145,0.534,4.43,2.731,4.239,0.117c-0.138-1.894-2.157-2.928-3.281-4.203C89.75,325.502,89.609,325.274,89.466,325.009z"/>
			</g>
			<g>
				<path style="fill:#FFFFFF;stroke:#263238;stroke-linecap:round;stroke-linejoin:round;stroke-miterlimit:10;" d="
					M90.918,291.528c0,0-1.844,3.074-2.767,3.996c-0.922,0.922-10.145,7.378-11.989,8.3c-0.107,0.054-0.212,0.111-0.315,0.171
					c-1.621,0.132-2.581,0.648-2.413,2.669c0.226,2.715-0.226,3.168,1.584,4.299c1.81,1.131,5.43-2.263,5.43-2.263
					s-0.003-0.579-0.117-1.329c1.404-0.994,2.862-2.133,3.823-3.24c4.902-5.643,7.07-2.767,8.3-6.148
					C93.685,294.603,93.377,291.528,90.918,291.528z"/>
				<path style="fill:#FFFFFF;stroke:#263238;stroke-linecap:round;stroke-linejoin:round;stroke-miterlimit:10;" d="
					M77.507,311.417c0,0,0.679-3.62-1.584-4.299c-2.263-0.679-3.62,1.358-3.62,3.847c0,2.489-0.905,5.43-0.226,7.693
					s2.941,3.394,3.847,2.263c0.905-1.131,0.905-4.978,1.131-6.336C77.281,313.227,77.507,311.417,77.507,311.417z"/>
				<path style="fill:#FFFFFF;stroke:#263238;stroke-linecap:round;stroke-linejoin:round;stroke-miterlimit:10;" d="
					M77.733,322.277c0.226-1.81,0-3.394-0.905-4.073c0,0-3.392-1.357-4.751,0.451c-1.619,2.155-0.478,4.071,0.484,6.175
					c0.32,0.701,3.102,1.895,3.623,2.467c2.263,2.489,2.907,2.22,3.359,0.862C79.996,326.803,77.733,322.277,77.733,322.277z"/>
			</g>
			<path style="fill:#FFFFFF;stroke:#263238;stroke-linecap:round;stroke-linejoin:round;stroke-miterlimit:10;" d="M89.952,289.695
				c0,0,0.471,4.646-1.801,5.83c-2.272,1.184-1.262,3.71,2.758,5.049s6.057,4.281,8.546,0.208c2.489-4.073,4.073-4.978,0.679-8.146
				C96.74,289.468,91.673,286.858,89.952,289.695z"/>
			<path style="fill:#FFFFFF;stroke:#263238;stroke-linecap:round;stroke-linejoin:round;stroke-miterlimit:10;" d="M91.762,289.242
				c0,0-4.073,1.358-7.693,0.679s-5.431-0.452-5.431,1.131s0.453,2.715,3.394,2.941c2.941,0.226,5.353-0.072,7.693,0.679
				C92.066,295.423,94.93,292.862,91.762,289.242z"/>
			<path style="fill:#FFFFFF;stroke:#263238;stroke-linecap:round;stroke-linejoin:round;stroke-miterlimit:10;" d="M81.127,291.505
				c0,0,0.539-3.744-3.168-2.715c-2.901,0.805-6.764,3.18-8.372,2.941c-1.119-0.166-1.358,2.489,2.036,2.489
				S80.449,293.541,81.127,291.505z"/>
		</g>
		<path style="fill:#92E3A9;stroke:#263238;stroke-linecap:round;stroke-linejoin:round;stroke-miterlimit:10;" d="M334.109,186
			c-0.685-1.807-1.32-3.539-1.907-5.202c-0.182-0.8-0.4-1.756-0.65-2.839c-0.717-3.108-3.108-18.412-4.304-24.151
			c-1.196-5.739-0.239-16.977,0-21.999c0.239-5.021,0.717-9.565,0-13.869c-0.717-4.304-3.826-5.978-7.173-6.217
			c-3.348-0.239-1.913,2.391-0.957,3.826c0.957,1.435,1.435,3.587,0.478,5.5c-0.956,1.913-5.978,5.021-5.978,5.021l-0.034,0.126
			c-3.334,0.985-6.915,1.32-9.327,0.596c-4.975-1.493-16.916-7.463-16.916-11.443c0-3.98,2.985-6.468-0.995-10.448
			c-3.98-3.98-7.961-4.478-11.443-8.956c-3.483-4.478-2.351-8.752-5.653-11.341c-3.302-2.59-34.81-14.836-46.172,12.184
			c0,0-8.935,12.558-9.418,17.387c-0.483,4.83,2.173,8.694,1.69,11.833c-0.483,3.139-9.66,4.83-12.316,8.452
			c-2.656,3.622-7.245,4.347-12.557,4.83c-5.313,0.483-10.626-1.207-10.626-3.381s2.173-7.245,0.242-7.245
			s-6.279,3.381-7.245,10.626c-0.966,7.245,4.105,8.452,4.588,13.765c0,0,0.541,1.044-4.54,22.479
			c-5.276,22.258-7.019,23.473-15.679,41.248c-8.66,17.775-29.611,37.307-43.166,50.041c-9.145,8.59-25.478,20.141-22.288,22.42
			c3.19,2.279,16.712,16.664,14.889,35.35c-1.823,18.687,10.483,29.17,10.483,29.17s-1.823-10.939,1.367-15.952
			c3.19-5.013,1.367,1.823,5.013,5.925c3.646,4.102,15.041,1.823,15.041,1.823s-7.748-16.408-5.469-25.068
			c2.279-8.66,28.576-15.16,30.855-23.364c2.279-8.204,5.925-15.04,5.925-15.04l1.367,14.585c0,0,3.19-6.837,5.469-17.775
			s2.721-33.395,6.367-45.245c0.411-1.337,5.702,43.025-5.523,69.752c-8.34,19.858-15.88,27.612-15.88,41.543
			c0,13.931,3.483,23.882,3.483,23.882s4.478-27.862,7.961-30.848c3.483-2.985,9.453-1.99,5.97,19.902
			c-3.483,21.892-15.856,40.327-15.856,58.736c0,18.409,2.488,26.867,2.488,26.867s2.488-32.34,10.448-29.355
			c7.961,2.985,0.498,19.902,8.458,36.818c7.961,16.916,28.651,29.164,28.651,29.164s-5.971-24.379,0-19.902
			c5.97,4.478,9.16,9.805,18.707,19.767c10.335,10.785,34.6,13.481,34.6,13.481s-7.098-6.943-1.127-18.387
			c5.97-11.443,12.936-22.389,12.439-9.453c-0.497,12.936-1.493,15.921-1.493,15.921s8.956-8.956,16.419-18.906
			c7.463-9.951,19.473-48.683,29.424-57.638c9.951-8.956,11.295,12.835-1.739,29.149c-5.625,7.04,20.397-13.735,27.86-43.588
			s-22.837-99.906-18.359-96.424c4.478,3.483,18.483,4.621,22.021,42.126c0.939,9.956,10.448,1.493,11.941-35.823
			C365.454,263.118,345.055,214.857,334.109,186z"/>
		<path style="fill:#263238;stroke:#263238;stroke-linecap:round;stroke-linejoin:round;stroke-miterlimit:10;" d="M348.44,268.139
			c-5.777-6.19-14.031-39.616-14.031-39.616s0.776-9.284-1.7-13.41c-2.476-4.127-5.315-10.524-5.728-21.666
			c-0.413-11.142-6.603,21.046-10.317-6.603c-3.714-27.649,1.651-24.348,4.127-33.014c2.476-8.666,0.825-23.522-1.238-18.158
			c-2.063,5.365-13.205,15.269-15.269,17.745c-2.063,2.476-1.651-2.476-2.063-14.031c-0.413-11.555-11.555,14.443-13.205,14.031
			c-1.651-0.413-0.825-16.507-0.825-16.507s-1.651-10.317-2.889-5.777c-1.238,4.539-31.775,30.95-31.775,30.95l-31.363-36.728
			c0,0-0.413,4.539-2.889,16.094s4.952,33.426,2.063,32.188c-2.889-1.238-11.142-23.109-13.205-28.474
			c-2.063-5.365,2.476,21.871-1.651,19.395c-4.127-2.476-5.365-14.443-7.428-19.808s-5.777,3.714-5.777,3.714
			s-5.365,0.825-8.666-2.063c-3.301-2.889-4.127-2.889-4.127,0c0,2.889,6.19,9.491,4.127,9.079
			c-2.063-0.413-2.476,15.269-2.476,29.299c0,14.031-10.729,40.442-10.729,40.442s0.413-16.094-1.238-20.633
			c-1.651-4.539-1.651,13.618-7.428,28.887c-5.777,15.269-33.426,48.282-34.251,51.171c-0.825,2.889-2.476-13.205-5.365-17.745
			c-2.889-4.539-6.603,12.38-8.253,25.586c-1.651,13.205-5.365,14.031-10.317,7.015c-4.952-7.015-8.253-7.015-8.253-7.015
			s0.053,0.543,0.147,1.517c4.996,6.118,11.506,17.257,10.205,30.59c-1.823,18.687,10.483,29.169,10.483,29.169
			s-1.823-10.939,1.367-15.952c3.19-5.013,1.367,1.823,5.013,5.925c3.646,4.102,15.041,1.823,15.041,1.823
			s-7.748-16.408-5.469-25.068c2.279-8.66,28.576-15.16,30.855-23.364c2.279-8.204,5.925-15.04,5.925-15.04l1.367,14.585
			c0,0,3.19-6.837,5.469-17.775c2.279-10.939,2.721-33.395,6.367-45.245c0.411-1.337,3.348,13.232,3.888,11.923
			c0.515,3.083,2.258,9.865,2.851,12.7c3.683,6.268,1.675-21.723,2.23-12.006c0.825,14.443-0.825,40.029-4.539,50.758
			c-3.714,10.729-11.967,32.188-11.967,32.188s1.651-3.714,11.967-19.808c10.317-16.094,7.841-18.57,7.428-10.317
			c-0.413,8.253-0.413,18.57-6.19,33.013c-5.777,14.443-2.889,18.983-2.063,16.919c0.825-2.063,9.079-14.031,9.079-14.031
			s0,0-1.651,9.904c-1.651,9.904-4.952,18.983-11.555,35.077c-6.603,16.094-3.714,23.522-3.714,21.046
			c0-2.476,8.253-10.729,11.555-17.332c3.301-6.603,4.127-3.301,1.651,15.269s-7.428,25.998-7.015,41.267
			c0.413,15.269,16.094,22.697,17.745,24.348c1.651,1.651,0-3.714-2.476-13.618c-2.476-9.904,0.825-18.57,7.015-16.507
			c6.19,2.063,14.856,30.95,24.347,40.854c9.491,9.904,24.76,13.618,24.76,13.618s-5.365-4.127-4.127-10.729
			c1.238-6.603,10.729-11.555,18.157-25.998c7.428-14.443,8.666-24.348,14.444-29.299c5.777-4.952,0.413,26.824,0.413,26.824
			s5.777-9.904,8.666-14.443c2.889-4.539,10.317-19.395,11.967-33.839c1.651-14.443,11.967-27.649,17.332-33.013
			c5.365-5.365,7.428,23.109,7.841,22.284c0.413-0.825,4.539-26.823,0.825-51.171c-3.714-24.348-14.031-53.647-14.031-57.361
			c0-3.714,12.097,11.962,12.097,11.962c4.478,3.483,18.483,4.621,22.021,42.126c0.2,2.121,0.792,3.397,1.609,3.745l6.365-18.629
			c0,0,1.651-19.808,0.825-30.125C359.994,280.932,354.217,274.329,348.44,268.139z"/>
		<g>
			<path style="fill:#92E3A9;stroke:#263238;stroke-linecap:round;stroke-linejoin:round;stroke-miterlimit:10;" d="M225.01,151.795
				c0,0,1.37,11.721,5.023,21.159c3.653,9.438,17.353,12.787,26.639,7.763c9.285-5.023,12.025-9.742,15.679-27.857
				c3.653-18.115,4.262-26.182,2.435-40.491c-1.827-14.309-4.11-18.876-5.176-21.463c-1.066-2.588-4.567-8.829-4.567-8.829
				s1.522,10.656-0.913,13.852c-2.436,3.197-24.66,2.74-28.466,0.761c-3.806-1.979-6.241-7.307-6.241-7.307
				s-5.023,3.653-7.307,14.005C219.835,113.739,225.01,151.795,225.01,151.795z"/>
			<path style="fill:#263238;stroke:#263238;stroke-linecap:round;stroke-linejoin:round;stroke-miterlimit:10;" d="
				M221.449,106.734c0,0,4.611,38.859,13.926,50.503c9.315,11.644,20.494,9.315,27.48-3.726c6.986-13.041,12.11-37.727,12.11-51.234
				s-13.973-43.782-26.548-40.987C235.841,64.084,221.961,94.424,221.449,106.734z"/>
			<path style="fill:#A3A3A3;stroke:#263238;stroke-linecap:round;stroke-linejoin:round;stroke-miterlimit:10;" d="
				M235.942,102.332c0,0,0.433,0.605,0.692,2.163c0.26,1.557-0.779,3.201-0.952,5.277c-0.173,2.076,1.644,2.076,3.72,3.893
				c2.076,1.817,3.114,3.893,3.547,5.363c0.432,1.471,1.817,2.768,4.152,3.201c2.336,0.433,5.969-0.26,7.007-1.384
				c1.038-1.125,1.211-5.19,2.682-6.834c1.471-1.644,4.325-1.471,5.017-4.758c0.692-3.287-0.952-3.979-1.125-5.363
				c-0.173-1.384-0.26-2.336-0.26-2.336s-1.644-2.595-6.401-5.277c-4.758-2.682-6.315-2.682-8.564-1.471
				C243.208,96.017,236.374,99.823,235.942,102.332z"/>
			<path style="fill:#A3A3A3;stroke:#263238;stroke-linecap:round;stroke-linejoin:round;stroke-miterlimit:10;" d="M240.212,70.625
				c0,0-7.863,3.848-9.034,8.365c-1.171,4.517-3.681,16.73-3.011,20.411c0.669,3.681,7.194,3.848,8.867,2.509
				c1.673-1.338,2.51-1.004,2.342,0.669c-0.167,1.673,0.167,1.835,0.167,1.835s3.179,2.677,7.027,2.509s9.247-0.955,10.251-1.959
				c1.004-1.004-0.837-4.511,0.669-4.344c1.506,0.167,2.222,2.284,5.568,1.28c3.346-1.004,4.309-2.746,5.145-5.925
				c0.836-3.179,1.467-1.741-4.054-15.124c-5.521-13.384-11.389-13.405-15.07-13.238S240.212,70.625,240.212,70.625z"/>
			<path style="fill:#263238;stroke:#263238;stroke-linecap:round;stroke-linejoin:round;stroke-miterlimit:10;" d="M245.406,90.409
				c0,0-2.715-0.863-4.614-2.9c-1.899-2.037-5.383-3.269-7.499-1.735c-2.116,1.533-1.73,6.12,0.01,7.426
				c1.739,1.306,6.202,1.405,6.851,1.57C240.801,94.935,244.775,95.6,245.406,90.409z"/>
			<path style="fill:#263238;stroke:#263238;stroke-linecap:round;stroke-linejoin:round;stroke-miterlimit:10;" d="M250.585,90.409
				c0,0,2.715-0.863,4.614-2.9c1.899-2.037,5.383-3.269,7.499-1.735c2.116,1.533,1.73,6.12-0.01,7.426
				c-1.739,1.306-6.202,1.405-6.851,1.57C255.189,94.935,251.215,95.6,250.585,90.409z"/>
			<path style="fill:#263238;stroke:#263238;stroke-linecap:round;stroke-linejoin:round;stroke-miterlimit:10;" d="M248.242,92.876
				c0,0-2.677,4.183-2.844,5.688s0.335,2.509,1.171,2.175c0.837-0.335,1.171-1.673,1.171-1.673l1.171-0.837
				c0,0,1.004,3.179,2.175,2.342s1.338-2.342,0.669-3.346C251.086,96.222,248.242,92.876,248.242,92.876z"/>
			<path style="fill:none;stroke:#263238;stroke-linecap:round;stroke-linejoin:round;stroke-miterlimit:10;" d="M246.569,89.363
				c0,0,1.506-0.335,1.506-1.004c0-0.669,0-2.677,0-2.677"/>
			<path style="fill:none;stroke:#263238;stroke-linecap:round;stroke-linejoin:round;stroke-miterlimit:10;" d="M243.892,85.013
				c0,0-0.837,0.167-2.677-1.84c-1.84-2.008-6.023-2.175-7.361-1.673"/>
			<path style="fill:none;stroke:#263238;stroke-linecap:round;stroke-linejoin:round;stroke-miterlimit:10;" d="M251.588,84.009
				c0,0,1.84-1.004,3.513-2.175c1.673-1.171,4.852-2.007,6.525-1.004"/>
			<path style="fill:#FFFFFF;stroke:#263238;stroke-linecap:round;stroke-linejoin:round;stroke-miterlimit:10;" d="
				M238.733,100.654c0,0,1.871-1.871,3.742-1.091"/>
			<path style="fill:#FFFFFF;stroke:#263238;stroke-linecap:round;stroke-linejoin:round;stroke-miterlimit:10;" d="M254.481,98.782
				c0,0,0.871-0.222,3.008,1.838"/>
			<g>
				
					<path style="fill:#A3A3A3;stroke:#263238;stroke-width:0.75;stroke-linecap:round;stroke-linejoin:round;stroke-miterlimit:10;" d="
					M239.542,104.414c0,0-0.056,2.89,0.055,3.334c0.111,0.444,1.11,1.776,1.11,0.555c0-1.221,0.099-2.228-0.012-2.672
					C240.585,105.187,239.542,104.414,239.542,104.414z"/>
				
					<path style="fill:#A3A3A3;stroke:#263238;stroke-width:0.75;stroke-linecap:round;stroke-linejoin:round;stroke-miterlimit:10;" d="
					M242.139,106.297c0,0-0.557,2.484-0.112,2.929c0.444,0.444,0.999,0.333,1.11-0.222c0.111-0.555,0.334-2.373,0.334-2.373
					L242.139,106.297z"/>
				
					<path style="fill:#A3A3A3;stroke:#263238;stroke-width:0.75;stroke-linecap:round;stroke-linejoin:round;stroke-miterlimit:10;" d="
					M244.118,106.808c0,0-0.666,2.137,0,2.803c0.666,0.666,1.477,0.135,1.588-0.42c0.111-0.555,0.187-2.196,0.187-2.196
					L244.118,106.808z"/>
				
					<path style="fill:#A3A3A3;stroke:#263238;stroke-width:0.75;stroke-linecap:round;stroke-linejoin:round;stroke-miterlimit:10;" d="
					M246.569,106.924c0,0-0.068,2.734,0.166,2.921c0.234,0.187,0.981,0.28,1.402,0.047c0.42-0.234,0.14-2.943,0.14-2.943
					L246.569,106.924z"/>
				
					<path style="fill:#A3A3A3;stroke:#263238;stroke-width:0.75;stroke-linecap:round;stroke-linejoin:round;stroke-miterlimit:10;" d="
					M249.257,107.182c0,0-0.187,2.569,0.14,2.756c0.327,0.187,1.215,0.14,1.448-0.467c0.234-0.607-0.187-2.57-0.187-2.57
					L249.257,107.182z"/>
				
					<path style="fill:#A3A3A3;stroke:#263238;stroke-width:0.75;stroke-linecap:round;stroke-linejoin:round;stroke-miterlimit:10;" d="
					M251.687,106.808c0,0-0.234,2.476,0.14,2.71c0.374,0.234,1.168,0.421,1.355-0.654s-0.327-2.429-0.327-2.429L251.687,106.808z"/>
				
					<path style="fill:#A3A3A3;stroke:#263238;stroke-width:0.75;stroke-linecap:round;stroke-linejoin:round;stroke-miterlimit:10;" d="
					M253.649,106.387c0,0,0.047,3.13,0.467,3.13c0.421,0,0.888-0.14,0.981-0.794c0.093-0.654-0.374-2.523-0.374-2.71
					C254.723,105.827,253.649,106.387,253.649,106.387z"/>
				
					<path style="fill:#A3A3A3;stroke:#263238;stroke-width:0.75;stroke-linecap:round;stroke-linejoin:round;stroke-miterlimit:10;" d="
					M255.518,105.78c0,0,0.093,2.616,0.42,2.71c0.327,0.093,1.168,0.047,1.121-0.747c-0.047-0.794-0.561-2.009-0.561-2.149
					C256.499,105.453,255.518,105.78,255.518,105.78z"/>
				
					<path style="fill:#A3A3A3;stroke:#263238;stroke-width:0.75;stroke-linecap:round;stroke-linejoin:round;stroke-miterlimit:10;" d="
					M243.365,106.314c0,0-0.049-0.64,0.049-1.281c0.098-0.64,0.098-1.576,0.098-1.576"/>
				
					<line style="fill:#A3A3A3;stroke:#263238;stroke-width:0.75;stroke-linecap:round;stroke-linejoin:round;stroke-miterlimit:10;" x1="245.828" y1="106.118" x2="245.828" y2="104.739"/>
				
					<line style="fill:#A3A3A3;stroke:#263238;stroke-width:0.75;stroke-linecap:round;stroke-linejoin:round;stroke-miterlimit:10;" x1="251.787" y1="103.064" x2="251.837" y2="105.822"/>
				
					<line style="fill:#A3A3A3;stroke:#263238;stroke-width:0.75;stroke-linecap:round;stroke-linejoin:round;stroke-miterlimit:10;" x1="254.742" y1="104.985" x2="254.496" y2="103.606"/>
				
					<line style="fill:#A3A3A3;stroke:#263238;stroke-width:0.75;stroke-linecap:round;stroke-linejoin:round;stroke-miterlimit:10;" x1="241.1" y1="104.886" x2="241.395" y2="103.507"/>
			</g>
			<g>
				
					<path style="fill:#A3A3A3;stroke:#263238;stroke-width:0.75;stroke-linecap:round;stroke-linejoin:round;stroke-miterlimit:10;" d="
					M240.207,111.332c0,0-0.822-2.466-0.342-2.603c0.479-0.137,1.37-0.068,1.37,0.822c0,0.891,0.411,2.26,0.068,2.534
					C240.96,112.359,240.207,111.332,240.207,111.332z"/>
				
					<path style="fill:#A3A3A3;stroke:#263238;stroke-width:0.75;stroke-linecap:round;stroke-linejoin:round;stroke-miterlimit:10;" d="
					M241.234,109.551c0,0,0.342,2.74,0.753,3.151c0.411,0.411,1.233,0.479,1.301-0.205c0.068-0.685-0.342-2.877-0.342-2.877
					L241.234,109.551z"/>
				
					<path style="fill:#A3A3A3;stroke:#263238;stroke-width:0.75;stroke-linecap:round;stroke-linejoin:round;stroke-miterlimit:10;" d="
					M243.563,109.893c0,0,0.137,2.808,0.616,3.219c0.479,0.411,1.096,0.411,1.164-0.343c0.068-0.753,0-2.534,0-2.534
					L243.563,109.893z"/>
				
					<path style="fill:#A3A3A3;stroke:#263238;stroke-width:0.75;stroke-linecap:round;stroke-linejoin:round;stroke-miterlimit:10;" d="
					M245.344,110.236c0,0,0.548,3.425,1.233,3.493c0.685,0.069,0.891-0.411,1.096-1.096c0.205-0.685,0.342-2.192,0.342-2.192
					L245.344,110.236z"/>
				
					<path style="fill:#A3A3A3;stroke:#263238;stroke-width:0.75;stroke-linecap:round;stroke-linejoin:round;stroke-miterlimit:10;" d="
					M248.495,110.441c0,0-0.342,2.603,0.479,3.082c0.822,0.479,1.301-0.753,1.438-1.37c0.137-0.616,0.137-1.918,0.137-1.918
					L248.495,110.441z"/>
				
					<path style="fill:#A3A3A3;stroke:#263238;stroke-width:0.75;stroke-linecap:round;stroke-linejoin:round;stroke-miterlimit:10;" d="
					M250.549,110.236c0,0,0.342,2.877,0.891,2.877c0.548,0,1.233-3.014,1.233-3.014L250.549,110.236z"/>
				
					<path style="fill:#A3A3A3;stroke:#263238;stroke-width:0.75;stroke-linecap:round;stroke-linejoin:round;stroke-miterlimit:10;" d="
					M252.673,110.099c0,0,0.548,2.534,1.096,2.329c0.548-0.205,0.959-2.603,0.959-2.603S253.221,109.688,252.673,110.099z"/>
				
					<path style="fill:#A3A3A3;stroke:#263238;stroke-width:0.75;stroke-linecap:round;stroke-linejoin:round;stroke-miterlimit:10;" d="
					M255.344,109.345c0,0-0.48,1.986,0,2.329c0.479,0.342,0.89-0.069,1.027-0.617c0.137-0.548,0.274-2.192,0.274-2.192
					L255.344,109.345z"/>
			</g>
			<path style="fill:#92E3A9;stroke:#263238;stroke-linecap:round;stroke-linejoin:round;stroke-miterlimit:10;" d="M249.823,70.812
				c0,0-19.332,18.876-24.356,28.161c-5.023,9.285-2.436,28.77-2.283,37.599c0.152,8.829,1.827,15.222,1.827,15.222
				s-6.546-26.639-7.459-40.187c-0.913-13.548-0.761-23.138,1.37-26.943c2.131-3.805,10.656-24.508,16.288-30.444
				c5.632-5.937,12.33-6.85,14.005-7.154c1.674-0.304,11.721,8.068,17.201,12.33c5.48,4.262,6.393,3.501,7.916,6.241
				c1.522,2.74,4.719,5.48,4.719,11.112s-6.241-3.653-7.002-4.719c-0.761-1.066,0.152,4.11,0.609,5.937
				c0.457,1.827,7.002,18.114,9.59,23.29c2.588,5.175,4.262,19.028,4.415,27.4c0.152,8.372-13.972,41.135-17.361,47.652
				c-6.541,12.579-20.613,15.829-28.68,12.327s-10.586-15.683-10.586-15.683s16.592,8.677,25.726,2.588
				c9.133-6.089,16.897-28.161,16.897-42.013c0-13.852,3.045-30.749-1.522-37.751c-4.567-7.002-16.288-22.225-18.115-23.29
				C251.193,71.421,249.823,70.812,249.823,70.812z"/>
			<path style="fill:#263238;stroke:#263238;stroke-linecap:round;stroke-linejoin:round;stroke-miterlimit:10;" d="
				M272.474,138.189c0,0-2.311,20.493-6.934,31.279c-4.623,10.786-11.711,14.638-20.493,13.559
				c-8.783-1.078-13.405-8.937-13.405-8.937s14.022,6.626,22.342,2.157C262.304,171.779,271.703,148.975,272.474,138.189z"/>
			<path style="fill:#263238;stroke:#263238;stroke-linecap:round;stroke-linejoin:round;stroke-miterlimit:10;" d="M286.66,128.657
				c-0.152-8.372-1.827-22.225-4.414-27.4c-2.588-5.176-9.133-21.463-9.59-23.29c-0.457-1.827-1.37-7.002-0.609-5.937
				c0.761,1.065,7.002,10.351,7.002,4.719s-3.197-8.372-4.719-11.112c-1.522-2.74-2.436-1.979-7.916-6.241
				c-4.587-3.568-12.355-9.996-15.753-11.824c-3.04,0.377,1.049,4.079,2.149,7.535c1.382,4.344,6.121,10.268,7.109,15.008
				c0.987,4.739-2.962-2.172-2.962-2.172l-7.109,1.382c0,0,1.58,1.382,3.171,3.163c0.187,0.109,0.483,0.374,0.859,0.756
				c3.349,2.654,14.085,9.592,18.679,17.013c5.134,8.294,7.899,21.327,7.504,20.932c-0.381-0.381-6.766-10.385-7.225-11.104
				c0.025,0.109,0.05,0.218,0.074,0.329c0.693,2.564,4.716,18.277,4.16,35.399c-0.527,16.191-2.874,27.592-5.173,35.009
				C277.152,159.174,286.786,135.581,286.66,128.657z"/>
		</g>
		<g>
			<path style="fill:#92E3A9;stroke:#263238;stroke-linecap:round;stroke-linejoin:round;stroke-miterlimit:10;" d="
				M392.721,269.586c-5.976-9.654-1.839-20.686-6.895-40.453c-3.739-14.615-15.01-33.993-20.635-43.107
				c-0.684-1.188-1.359-2.261-2.025-3.233c-0.788-1.238-1.245-1.928-1.245-1.928l-0.011,0.191c-4.654-5.997-8.74-6.795-11.622-4.216
				c0,0-17.187,20.338-18.333,31.796c-1.146,11.458-1.146,30.65,6.302,50.701c7.448,20.051,14.895,32.655,17.187,41.248
				c1.037,3.889,1.253,8.126,1.55,11.471c0.191,12.08-2.501,24.021-3.807,29.243c-1.839,7.355,10.113-9.194,13.331-16.549
				c3.218-7.355,8.275-25.283,10.573-29.421c2.298-4.137,4.137,25.283,4.597,22.985c0.46-2.299,4.137-9.194,4.137-21.146
				c0-11.952-3.218-19.767,0.46-23.904c3.677-4.137,12.412,5.976,12.412,5.976S398.697,279.24,392.721,269.586z"/>
			<path style="fill:#263238;stroke:#263238;stroke-linecap:round;stroke-linejoin:round;stroke-miterlimit:10;" d="
				M385.588,259.543c-3.129-10.013-0.939-28.161-7.197-43.492c-6.258-15.332,2.816,20.338,2.503,33.793
				c-0.313,13.455-4.38-21.59-14.393-41.302c-10.013-19.712-14.08-22.529-14.08-22.529c-1.877-5.319-7.509-0.313-10.326,5.319
				c-2.816,5.632-6.571,23.78-6.571,40.989s25.658,56.008,28.474,75.721c1.713,11.989-1.55,22.118-4.371,28.221
				c2.728-3.849,5.558-8.468,6.891-11.514c3.218-7.355,8.275-25.283,10.573-29.421c2.298-4.137,4.137,25.283,4.597,22.985
				c0.46-2.299,4.137-9.194,4.137-21.146c0-11.952-3.218-19.767,0.46-23.904c0.652-0.733,1.465-1.013,2.358-0.986
				C388.095,268.95,387.156,264.562,385.588,259.543z"/>
			<path style="fill:#263238;stroke:#263238;stroke-linecap:round;stroke-linejoin:round;stroke-miterlimit:10;" d="M308.809,10.757
				c-33.546-0.895-59.488,5.815-83.641,18.786s-34.888,26.837-34.888,26.837c3.595-0.343,13.374-10.03,38.448-15.883l6.923-5.117
				l0.329,3.623c4.095-0.739,8.524-1.374,13.341-1.855c0.475-0.048,0.954-0.085,1.431-0.126l9.468-3.748l-0.306,3.367
				c2.066-0.002,4.149,0.041,6.247,0.139l4.589-3.155l0.315,3.466c17.401,1.389,35.437,5.773,51.084,10.661l4.76-3.245l-0.247,4.69
				c23.024,7.541,39.846,15.683,39.846,15.683s8.498-13.418,11.182-36.677C377.69,28.201,342.354,11.651,308.809,10.757z"/>
			<path style="fill:#92E3A9;stroke:#263238;stroke-linecap:round;stroke-linejoin:round;stroke-miterlimit:10;" d="M366.508,64.878
				c0,0,5.257-8.306,8.807-23.169c-5.528-2.501-40.335-17.666-73.54-18.556c-36.195-0.97-64.186,6.305-90.247,20.369
				c-7.509,4.052-13.808,8.183-18.983,12.014c4.888-2.529,15.156-10.131,36.182-15.04l6.923-5.117l0.329,3.623
				c4.095-0.739,8.524-1.374,13.341-1.855c0.475-0.048,0.954-0.085,1.431-0.126l9.468-3.748l-0.306,3.367
				c2.066-0.002,4.149,0.041,6.247,0.139l4.589-3.155l0.315,3.466c17.401,1.389,35.437,5.773,51.084,10.661l4.76-3.245l-0.247,4.69
				C349.685,56.736,366.508,64.878,366.508,64.878z"/>
			<path style="fill:#A3A3A3;stroke:#263238;stroke-linecap:round;stroke-linejoin:round;stroke-miterlimit:10;" d="M383.504,20.597
				c-6.709-0.447-8.498,6.709-9.84,14.313c-1.264,7.163-4.115,20.673-4.441,22.215c-6.488,16.271-13.954,35.676-16.815,45.707
				c-2.422,8.488-4.99,21.711-7.963,37.023c-3.783,19.481-8.071,41.561-13.522,61.879c-9.285,34.605-35.405,149.359-36.79,172.904
				c-0.621,10.567-2.232,23.575-3.763,34.392c-3.655-0.955-16.1-4.068-17.085-2.427c-1.155,1.925-1.925,5.775,1.54,6.545
				c2.632,0.585,10.81,1.835,14.594,2.403c-1.31,8.746-2.372,14.909-2.397,15.052c-0.33,1.904,0.946,3.716,2.851,4.046
				c0.202,0.035,0.403,0.053,0.602,0.053c1.67,0,3.149-1.201,3.444-2.903c0.059-0.337,5.864-34.004,7.202-56.75
				c1.294-21.997,26.183-132.813,36.564-171.501c5.515-20.555,9.827-42.764,13.632-62.358c2.942-15.153,5.484-28.239,7.823-36.438
				c3.257-11.421,12.989-36.158,19.973-53.45c1.55-2.876,3.463-6.112,5.286-8.34c4.026-4.92,14.76-6.262,15.655-10.735
				C400.948,27.753,390.214,21.044,383.504,20.597z"/>
			<g>
				<g>
					<path style="fill:#FFFFFF;stroke:#263238;stroke-linecap:round;stroke-linejoin:round;stroke-miterlimit:10;" d="
						M356.281,128.626c0,0,2.295,1.02,2.825-1.163c0.53-2.183-2.244-3.608-3.789-2.48
						C353.772,126.11,354.484,128.652,356.281,128.626z"/>
					<path style="fill:#FFFFFF;stroke:#263238;stroke-linecap:round;stroke-linejoin:round;stroke-miterlimit:10;" d="
						M350.874,118.53c0,0-0.355-2.109-2.002-1.989c-1.647,0.12-3.003,0.946-2.855,2.716c0.148,1.77,2.82,2.187,2.82,2.187
						S349.528,118.838,350.874,118.53z"/>
					<path style="fill:#FFFFFF;stroke:#263238;stroke-linecap:round;stroke-linejoin:round;stroke-miterlimit:10;" d="
						M356.179,127.619c0,0,2.468-1.596,2.159-2.943c-0.309-1.346-3.779-2.998-5.875-4.836c-2.096-1.838-3.46-2.169-3.942-0.899
						c-0.482,1.27,0.513,3.361,1.877,3.692c1.364,0.331,3.348,1.68,3.611,2.264S355.05,127.749,356.179,127.619z"/>
					<path style="fill:#FFFFFF;stroke:#263238;stroke-linecap:round;stroke-linejoin:round;stroke-miterlimit:10;" d="
						M347.498,116.727c0,0-4.508,0.003-5.62,0.773c-1.112,0.77-1.555,1.645-0.558,2.06c0.997,0.416,2.127,0.285,2.127,0.285
						l3.697,0.956C347.145,120.802,346.387,117.498,347.498,116.727z"/>
				</g>
				<path style="fill:#FFFFFF;stroke:#263238;stroke-linecap:round;stroke-linejoin:round;stroke-miterlimit:10;" d="
					M349.964,158.808c0,0-1.154,18.553-3.042,30.034c-1.888,11.481-4.151,22.884-2.781,26.304c1.37,3.42,4.324,3.649,6.021,1.786
					c1.696-1.863,5.049-6.641,4.696-14.285c-0.353-7.644-2.975-24.38-1.334-30.953c1.641-6.573,1.921-12.258,1.302-13.04
					C354.207,157.871,352.37,156.05,349.964,158.808z"/>
				<path style="fill:#FFFFFF;stroke:#263238;stroke-linecap:round;stroke-linejoin:round;stroke-miterlimit:10;" d="
					M349.06,153.789c0,0-1.656,2.915-1.195,4.448c0.461,1.533,3.627,3.241,5.232,3.056c1.605-0.185,3.9-1.792,4.616-3.338
					c0.716-1.547-1.009-4.519-1.009-4.519S352.449,155.675,349.06,153.789z"/>
				<path style="fill:#FFFFFF;stroke:#263238;stroke-linecap:round;stroke-linejoin:round;stroke-miterlimit:10;" d="
					M351.14,148.198c0,0-2.52,1.953-2.25,3.623c0.27,1.67,0.877,2.914,2.923,3.22c2.046,0.305,4.835,0.022,5.691-2.28
					c0.856-2.302-0.438-3.607-0.802-4.346C356.337,147.676,353.009,146.977,351.14,148.198z"/>
				<path style="fill:#FFFFFF;stroke:#263238;stroke-linecap:round;stroke-linejoin:round;stroke-miterlimit:10;" d="
					M356.702,148.415c0,0-0.558-5.105,1.998-11.465c2.557-6.36,1.825-14.514-1.236-11.57c-3.061,2.944-7.646,21.293-6.44,24.856
					C352.231,153.799,355.457,152.016,356.702,148.415z"/>
				<g>
					<path style="fill:#FFFFFF;stroke:#263238;stroke-linecap:round;stroke-linejoin:round;stroke-miterlimit:10;" d="
						M357.327,139.331c0,0,1.887-1.657,0.128-3.052c-1.76-1.396-4.216,0.526-3.84,2.401
						C353.991,140.555,356.597,140.973,357.327,139.331z"/>
					<path style="fill:#FFFFFF;stroke:#263238;stroke-linecap:round;stroke-linejoin:round;stroke-miterlimit:10;" d="
						M345.894,140.01c0,0-2.063-0.561-2.644,0.984c-0.581,1.546-0.399,3.124,1.27,3.73c1.669,0.607,3.168-1.644,3.168-1.644
						S345.61,141.361,345.894,140.01z"/>
					<path style="fill:#FFFFFF;stroke:#263238;stroke-linecap:round;stroke-linejoin:round;stroke-miterlimit:10;" d="
						M356.37,139.001c0,0-0.416-2.91-1.767-3.193c-1.352-0.284-4.306,2.175-6.853,3.308c-2.547,1.133-3.42,2.233-2.468,3.202
						c0.951,0.969,3.266,0.942,4.139-0.158c0.872-1.1,2.928-2.336,3.568-2.33C353.628,139.837,356.014,140.081,356.37,139.001z"/>
					<path style="fill:#FFFFFF;stroke:#263238;stroke-linecap:round;stroke-linejoin:round;stroke-miterlimit:10;" d="
						M342.843,142.32c0,0-1.886,4.094-1.652,5.426c0.234,1.332,0.842,2.101,1.637,1.37c0.795-0.731,1.15-1.811,1.15-1.811
						l2.417-2.957C346.394,144.349,343.077,143.652,342.843,142.32z"/>
				</g>
				<g>
					<path style="fill:#FFFFFF;stroke:#263238;stroke-linecap:round;stroke-linejoin:round;stroke-miterlimit:10;" d="
						M356.753,135.084c0,0,2.343-0.903,1.174-2.82c-1.169-1.918-4.138-0.962-4.433,0.928
						C353.199,135.081,355.501,136.374,356.753,135.084z"/>
					<path style="fill:#FFFFFF;stroke:#263238;stroke-linecap:round;stroke-linejoin:round;stroke-miterlimit:10;" d="
						M345.789,131.773c0,0-1.742-1.239-2.822,0.011c-1.079,1.25-1.453,2.794-0.097,3.939s3.541-0.449,3.541-0.449
						S345.056,132.943,345.789,131.773z"/>
					<path style="fill:#FFFFFF;stroke:#263238;stroke-linecap:round;stroke-linejoin:round;stroke-miterlimit:10;" d="
						M355.969,134.444c0,0,0.615-2.874-0.556-3.607c-1.171-0.733-4.792,0.555-7.574,0.738c-2.782,0.184-3.98,0.915-3.423,2.153
						c0.558,1.238,2.74,2.012,3.938,1.281c1.199-0.731,3.555-1.181,4.154-0.954S355.262,135.335,355.969,134.444z"/>
					<path style="fill:#FFFFFF;stroke:#263238;stroke-linecap:round;stroke-linejoin:round;stroke-miterlimit:10;" d="
						M342.128,132.887c0,0-3.184,3.191-3.425,4.522c-0.241,1.331,0.064,2.263,1.063,1.851c0.999-0.412,1.705-1.303,1.705-1.303
						l3.289-1.94C344.76,136.018,341.887,134.218,342.128,132.887z"/>
				</g>
				<g>
					<path style="fill:#FFFFFF;stroke:#263238;stroke-linecap:round;stroke-linejoin:round;stroke-miterlimit:10;" d="
						M356.684,131.406c0,0,2.505,0.172,2.256-2.06c-0.25-2.232-3.344-2.621-4.41-1.032
						C353.465,129.901,355.004,132.045,356.684,131.406z"/>
					<path style="fill:#FFFFFF;stroke:#263238;stroke-linecap:round;stroke-linejoin:round;stroke-miterlimit:10;" d="
						M348.146,123.772c0,0-1.056-1.86-2.562-1.183c-1.506,0.677-2.498,1.918-1.752,3.53c0.745,1.612,3.399,1.089,3.399,1.089
						S346.987,124.523,348.146,123.772z"/>
					<path style="fill:#FFFFFF;stroke:#263238;stroke-linecap:round;stroke-linejoin:round;stroke-miterlimit:10;" d="
						M356.243,130.494c0,0,1.772-2.345,1.021-3.504c-0.751-1.159-4.577-1.522-7.176-2.531c-2.599-1.009-3.994-0.853-4.012,0.505
						c-0.018,1.358,1.633,2.981,3.028,2.825c1.395-0.156,3.721,0.431,4.168,0.89C353.719,129.138,355.227,131.003,356.243,130.494z"
						/>
					<path style="fill:#FFFFFF;stroke:#263238;stroke-linecap:round;stroke-linejoin:round;stroke-miterlimit:10;" d="
						M344.357,123.235c0,0-4.234,1.547-5.015,2.651c-0.781,1.104-0.898,2.078,0.181,2.127c1.079,0.049,2.096-0.46,2.096-0.46
						l3.801-0.369C345.42,127.185,343.577,124.34,344.357,123.235z"/>
				</g>
			</g>
		</g>
	</g>
</g>
</svg>
